# AST/ASF file generated using VICON BodyLanguage
# -----------------------------------------------
:version 1.10
:name VICON
:units
  mass 1.0
  length 0.45
  angle deg
:documentation
   .ast/.asf automatically generated from VICON data using
   VICON BodyBuilder and BodyLanguage model FoxedUp or BRILLIANT.MOD
:root
   order TX TY TZ RX RY RZ
   axis XYZ
   position 0 0 0  
   orientation 0 0 0 
:bonedata
  begin
     id 1 
     name lhipjoint
     direction 0.521452 -0.77106 0.36545 
     length 2.0933 
     axis 0 0 0  XYZ
  end
  begin
     id 2 
     name lfemur
     direction 0.34202 -0.939693 0  
     length 6.83441  
     axis 0 0 20  XYZ
    dof rx ry rz
    limits (-160.0 20.0)
           (-70.0 70.0)
           (-60.0 70.0)
  end
  begin
     id 3 
     name ltibia
     direction 0.34202 -0.939693 0   
     length 7.28749   
     axis 0 0 20   XYZ
    dof rx
    limits (-10.0 170.0)
  end
  begin
     id 4 
     name lfoot
     direction 0.100608 -0.276418 0.955757   
     length 1.52195   
     axis -90 7.62852e-016 20   XYZ
    dof rx rz
    limits (-45.0 90.0)
           (-70.0 20.0)
  end
  begin
     id 5 
     name ltoes
     direction 1.53558e-011 -4.21907e-011 1   
     length 0.770459   
     axis -90 7.62852e-016 20   XYZ
    dof rx
    limits (-90.0 20.0)
  end
  begin
     id 6 
     name rhipjoint
     direction -0.488071 -0.788702 0.373812   
     length 2.04648  
     axis 0 0 0  XYZ 
  end
  begin
     id 7 
     name rfemur
     direction -0.34202 -0.939693 0   
     length 6.92583   
     axis 0 0 -20   XYZ
    dof rx ry rz
    limits (-160.0 20.0)
           (-70.0 70.0)
           (-70.0 60.0)
  end
  begin
     id 8 
     name rtibia
     direction -0.34202 -0.939693 0   
     length 7.41043   
     axis 0 0 -20   XYZ
    dof rx
    limits (-10.0 170.0)
 end
 begin
     id 9 
     name rfoot
     direction -0.0784433 -0.215521 0.973343   
     length 1.67708  
     axis -90 -7.62852e-016 -20   XYZ
    dof rx rz
    limits (-45.0 90.0)
           (-20.0 70.0)
  end
  begin
     id 10 
     name rtoes
     direction -1.53551e-011 -4.21842e-011 1   
     length 0.849787   
     axis -90 -7.62852e-016 -20   XYZ
    dof rx
    limits (-90.0 20.0)
  end
  begin
     id 11 
     name lowerback
     direction -0.0122332 0.997575 -0.0685192   
     length 1.98724   
     axis 0 0 0   XYZ
    dof rx ry rz
    limits (-20.0 45.0)
           (-30.0 30.0)
           (-30.0 30.0)
  end
  begin
     id 12 
     name upperback
     direction 0.0182347 0.999724 -0.0148421   
     length 1.99029   
     axis 0 0 0   XYZ
    dof rx ry rz
    limits (-20.0 45.0)
           (-30.0 30.0)
           (-30.0 30.0)
  end
  begin
     id 13 
     name thorax
     direction 0.0242908 0.99956 0.0170184   
     length 1.99573   
     axis 0 0 0   XYZ
    dof rx ry rz
    limits (-20.0 45.0)
           (-30.0 30.0)
           (-30.0 30.0)
  end
  begin
     id 14 
     name lowerneck
     direction 0.0654488 0.985533 0.156338   
     length 1.4285   
     axis 0 0 0   XYZ
    dof rx ry rz
    limits (-20.0 45.0)
           (-30.0 30.0)
           (-30.0 30.0)
  end
  begin
     id 15 
     name upperneck
     direction -0.02953 0.998556 -0.0448842   
     length 1.44709   
     axis 0 0 0   XYZ
    dof rx ry rz
    limits (-20.0 45.0)
           (-30.0 30.0)
           (-30.0 30.0)
  end
  begin
     id 16
     name head
     direction -0.0155588 0.999386 -0.0314063  
     length 1.44689  
     axis 0 0 0   XYZ
    dof rx ry rz
    limits (-20.0 45.0)
           (-30.0 30.0)
           (-30.0 30.0)
  end
  begin
     id 17 
     name lclavicle
     direction 0.968229 0.236071 -0.0824755  
     length 3.60593  
     axis 0 0 0   XYZ
    dof ry rz
    limits (-20.0 10.0)
           (0.0 20.0)
  end
  begin
     id 18 
     name lhumerus
     direction 1 -4.48968e-011 7.8138e-029   
     length 5.06035   
     axis 180 -30 -90   XYZ
    dof rx ry rz
    limits (-60.0 90.0)
           (-90.0 90.0)
           (-90.0 90.0)
  end
  begin
     id 19
     name lradius
     direction 1 -4.48967e-011 9.02887e-028   
     length 3.1478   
     axis 180 -30 -90   XYZ
    dof rx
    limits (-10.0 170.0)
  end
  begin
     id 20
     name lwrist
     direction 1 -4.48961e-011 7.20928e-028   
     length 1.5739   
     axis -5.52449e-016 90 90   XYZ
    dof ry
    limits (-180.0 0.0)
 end
  begin
     id 21 
     name lhand
     direction 1 -4.48972e-011 1.44186e-027   
     length 0.606747   
     axis -9.20027e-016 90 90   XYZ
    dof rx rz
    limits (-90.0 90.0)
           (-45.0 45.0)
  end
  begin
     id 22 
     name lfingers
     direction 1 -4.48943e-011 2.88371e-027   
     length 0.489175   
     axis -1.84005e-015 90 90   XYZ
    dof rx
    limits (0.0 90.0)
  end
  begin
     id 23
     name lthumb
     direction 0.707107 -6.34917e-011 0.707107   
     length 0.70236   
     axis -90 45 2.85299e-015   XYZ
    dof rx rz
    limits (-45.0 45.0)
           (-45.0 45.0)
  end
  begin
     id 24 
     name rclavicle
     direction -0.978165 0.207816 0.0022268   
     length 3.35425  
     axis 0 0 0   XYZ 
    dof ry rz
    limits (-10.0 20.0)
           (-20.0 0.0)
  end
  begin
     id 25 
     name rhumerus
     direction -1 -4.48964e-011 -4.02159e-027  
     length 5.12273   
     axis 180 30 90   XYZ
    dof rx ry rz
    limits (-90.0 60.0)
           (-90.0 90.0)
           (-90.0 90.0)
  end
  begin
     id 26 
     name rradius
     direction -1 -4.48966e-011 1.62746e-027   
     length 3.422   
     axis 180 30 90   XYZ
    dof rx
    limits (-10.0 170.0)
  end
  begin
     id 27 
     name rwrist
     direction -1 -4.4896e-011 7.20928e-028   
     length 1.711   
     axis -5.52449e-016 -90 -90   XYZ
    dof ry
    limits (-180.0 0.0)
  end
  begin
     id 28
     name rhand
     direction -1 -4.48979e-011 1.44186e-027   
     length 0.704599   
     axis -9.20027e-016 -90 -90   XYZ
    dof rx rz
    limits (-90.0 90.0)
           (-45.0 45.0)
  end
  begin
     id 29
     name rfingers
     direction -1 -4.48962e-011 2.88371e-027   
     length 0.568066   
     axis -1.84005e-015 -90 -90   XYZ
    dof rx
    limits (0.0 90.0)
  end
  begin
     id 30
     name rthumb
     direction -0.707107 -6.34949e-011 0.707107   
     length 0.815633   
     axis -90 -45 -2.85299e-015   XYZ
    dof rx rz
    limits (-45.0 45.0)
           (-45.0 45.0)
  end
:hierarchy
  begin
    root lhipjoint rhipjoint lowerback
    lhipjoint lfemur
    lfemur ltibia
    ltibia lfoot
    lfoot ltoes
    rhipjoint rfemur
    rfemur rtibia
    rtibia rfoot
    rfoot rtoes
    lowerback upperback
    upperback thorax
    thorax lowerneck lclavicle rclavicle
    lowerneck upperneck
    upperneck head
    lclavicle lhumerus
    lhumerus lradius
    lradius lwrist
    lwrist lhand lthumb
    lhand lfingers
    rclavicle rhumerus
    rhumerus rradius
    rradius rwrist
    rwrist rhand rthumb
    rhand rfingers
  end

#!OML:ASF E:\id_vita\Project 1\Capture day 1\Session 1\Male1.ASF
:FULLY-SPECIFIED
:DEGREES
1
root 38.4149 15.9874 0.041115 -35.2299 -85.5078 39.7613
lowerback -2.32731 -2.27119 -7.13624
upperback -1.59748 -2.91814 0.369909
thorax 0.0264859 -1.4251 4.30379
lowerneck -8.84036 1.04107 4.54222
upperneck 12.7818 0.792512 -0.869897
head 5.3291 0.511237 -0.961094
rclavicle -3.02522e-014 -1.27222e-014
rhumerus -44.8369 -41.9345 -54.2263
rradius 9.72099
rwrist 33.8834
rhand -19.9608 36.3331
rfingers 7.12502
rthumb 6.37768 6.44907
lclavicle -3.02522e-014 -1.27222e-014
lhumerus -48.151 49.1981 53.269
lradius 9.50218
lwrist -34.641
lhand -15.4322 43.423
lfingers 7.12502
lthumb 10.7479 73.128
rfemur -9.59218 2.30033 10.8752
rtibia 29.5953
rfoot -18.7381 -22.9115
rtoes -8.50169
lfemur -11.171 -8.04057 -17.3409
ltibia 30.8235
lfoot -20.5357 24.1034
ltoes -11.092
2
root 38.4146 15.9879 0.041732 -35.0728 -85.4865 39.6027
lowerback -2.33784 -2.30297 -7.16141
upperback -1.58007 -2.95817 0.391207
thorax 0.0578164 -1.44636 4.33757
lowerneck -8.73363 0.833968 4.37966
upperneck 13.1431 0.550636 -1.01253
head 5.41592 0.376151 -0.998013
rclavicle -6.50573e-015 -3.8763e-015
rhumerus -44.6817 -41.9361 -54.3549
rradius 9.70351
rwrist 33.8528
rhand -19.6534 36.5345
rfingers 7.12502
rthumb 6.6744 6.65968
lclavicle -6.50573e-015 -3.8763e-015
lhumerus -48.2998 49.2153 53.1564
lradius 9.61306
lwrist -34.6727
lhand -15.4955 43.431
lfingers 7.12502
lthumb 10.6868 73.1392
rfemur -9.56958 2.25522 10.8702
rtibia 29.5765
rfoot -19.0593 -22.7635
rtoes -7.81529
lfemur -11.1834 -8.05058 -17.3437
ltibia 30.8392
lfoot -20.5687 24.0851
ltoes -11.0769
3
root 38.4132 15.9873 0.0409148 -34.2283 -85.4827 38.777
lowerback -2.37576 -2.32566 -7.14021
upperback -1.60566 -2.98702 0.406824
thorax 0.0560477 -1.46026 4.33983
lowerneck -8.62754 0.845943 4.58818
upperneck 13.1809 0.573529 -1.24696
head 5.41146 0.381176 -1.10426
rclavicle -2.03011e-014 -2.75565e-014
rhumerus -44.7059 -41.9085 -54.3544
rradius 9.67931
rwrist 33.8439
rhand -19.4703 36.7406
rfingers 7.12502
rthumb 6.85118 6.87141
lclavicle -2.03011e-014 -2.75565e-014
lhumerus -48.4423 49.1543 53.0324
lradius 9.66688
lwrist -34.7076
lhand -15.0366 43.5872
lfingers 7.12502
lthumb 11.1294 73.2721
rfemur -9.56946 2.37142 10.9385
rtibia 29.5705
rfoot -18.8249 -22.9735
rtoes -8.54007
lfemur -11.2263 -8.06548 -17.2768
ltibia 30.8556
lfoot -20.4719 24.1242
ltoes -11.2431
4
root 38.411 15.9854 0.0413209 -34.0807 -85.5257 38.6357
lowerback -2.41011 -2.3503 -7.14124
upperback -1.59555 -3.01636 0.452279
thorax 0.092008 -1.47622 4.38466
lowerneck -9.02767 0.984032 4.06321
upperneck 14.4635 0.715449 -0.756567
head 5.88253 0.461706 -0.856621
rclavicle 2.54942e-014 -1.63997e-014
rhumerus -44.5316 -41.8508 -54.4533
rradius 9.62847
rwrist 33.8979
rhand -19.6768 36.6371
rfingers 7.12502
rthumb 6.65185 6.76153
lclavicle 2.54942e-014 -1.63997e-014
lhumerus -48.4584 49.2905 53.0231
lradius 9.61242
lwrist -34.7312
lhand -13.8023 44.5734
lfingers 7.12502
lthumb 12.3197 74.1904
rfemur -9.57083 2.48715 10.9749
rtibia 29.5636
rfoot -18.5734 -23.1261
rtoes -9.13907
lfemur -11.2315 -8.10345 -17.2446
ltibia 30.8724
lfoot -20.4359 24.2213
ltoes -11.2129
5
root 38.4077 15.9816 0.042625 -33.9408 -85.4163 38.4468
lowerback -2.44478 -2.39242 -7.22739
upperback -1.5771 -3.06716 0.455323
thorax 0.141424 -1.50339 4.43203
lowerneck -8.99124 0.995006 4.07982
upperneck 14.732 0.737744 -0.863528
head 5.96163 0.465387 -0.892339
rclavicle 2.36748e-014 1.15295e-014
rhumerus -44.4371 -41.8562 -54.497
rradius 9.56509
rwrist 33.9569
rhand -19.7306 36.6039
rfingers 7.12502
rthumb 6.5999 6.72679
lclavicle 2.36748e-014 1.15295e-014
lhumerus -48.4136 49.347 53.0569
lradius 9.52681
lwrist -34.7394
lhand -12.3781 46.3591
lfingers 7.12502
lthumb 13.6927 75.8886
rfemur -9.49998 2.4995 10.9214
rtibia 29.5806
rfoot -18.8312 -23.1425
rtoes -8.45577
lfemur -11.197 -7.99871 -17.298
ltibia 30.8868
lfoot -20.4772 24.071
ltoes -11.1073
6
root 38.4067 15.9806 0.041579 -32.9282 -85.1184 37.403
lowerback -2.46166 -2.487 -7.37272
upperback -1.50532 -3.18535 0.435261
thorax 0.246911 -1.56734 4.4849
lowerneck -9.73338 1.24415 3.78416
upperneck 16.0444 0.984367 -0.405281
head 6.50989 0.607192 -0.678109
rclavicle 1.92468e-014 -9.74045e-015
rhumerus -44.1488 -42.0129 -54.6705
rradius 9.40746
rwrist 33.9472
rhand -19.5519 36.8356
rfingers 7.12502
rthumb 6.77243 6.96395
lclavicle 1.92468e-014 -9.74045e-015
lhumerus -48.1628 49.4429 53.2364
lradius 9.43699
lwrist -34.7618
lhand -12.3649 46.5405
lfingers 7.12502
lthumb 13.7053 76.0692
rfemur -9.40712 2.49846 10.8488
rtibia 29.6186
rfoot -19.1038 -23.3267
rtoes -7.78488
lfemur -11.2208 -7.82841 -17.3684
ltibia 30.878
lfoot -20.4472 23.7176
ltoes -11.2811
7
root 38.3956 15.9774 0.0485329 -34.3754 -85.3135 38.7567
lowerback -2.61303 -2.44567 -7.27983
upperback -1.44912 -3.11701 0.435296
thorax 0.376363 -1.53957 4.42748
lowerneck -9.53497 1.16194 4.04997
upperneck 16.0985 0.896561 -0.782426
head 6.49334 0.548775 -0.850994
rclavicle 2.30542e-014 4.32357e-015
rhumerus -43.958 -41.986 -54.8067
rradius 9.30026
rwrist 33.9125
rhand -19.6016 36.7954
rfingers 7.12502
rthumb 6.72446 6.92217
lclavicle 2.30542e-014 4.32357e-015
lhumerus -48.2112 49.5329 53.1705
lradius 9.35281
lwrist -34.793
lhand -12.9624 45.758
lfingers 7.12502
lthumb 13.1295 75.3246
rfemur -9.33979 2.35625 10.8309
rtibia 29.6795
rfoot -18.9255 -23.1608
rtoes -8.80617
lfemur -10.978 -8.36135 -17.4515
ltibia 30.858
lfoot -20.4915 24.402
ltoes -11.1792
8
root 38.3946 15.9786 0.0492084 -34.4974 -85.3437 38.9309
lowerback -2.9245 -2.37062 -7.14242
upperback -1.21326 -2.98355 0.289528
thorax 0.76362 -1.49264 4.18567
lowerneck -9.83317 0.993518 4.51461
upperneck 16.1962 0.63273 -1.10822
head 6.57293 0.424216 -1.05373
rclavicle 8.77166e-015 1.52195e-015
rhumerus -43.6763 -42.539 -55.135
rradius 9.30959
rwrist 33.949
rhand -19.7589 36.5216
rfingers 7.12502
rthumb 6.57254 6.64363
lclavicle 8.77166e-015 1.52195e-015
lhumerus -47.1627 49.6315 53.8065
lradius 9.11083
lwrist -34.8881
lhand -12.6266 46.6819
lfingers 7.12502
lthumb 13.4531 76.2274
rfemur -9.4068 2.28504 10.8403
rtibia 29.7424
rfoot -18.7702 -23.2014
rtoes -9.63695
lfemur -11.003 -8.49938 -17.4482
ltibia 30.8255
lfoot -20.5029 24.5202
ltoes -11.2117
9
root 38.3925 15.977 0.0505832 -34.9774 -85.2587 39.3698
lowerback -2.77956 -2.40101 -7.16661
upperback -1.29943 -3.03953 0.227638
thorax 0.597961 -1.5131 4.14085
lowerneck -10.1283 1.07005 4.37814
upperneck 17.3052 0.69057 -0.986396
head 6.98238 0.454205 -0.991464
rclavicle 9.5268e-015 9.25125e-015
rhumerus -43.8354 -42.4408 -55.1398
rradius 9.4136
rwrist 34.0489
rhand -19.6863 36.4849
rfingers 7.12502
rthumb 6.64261 6.60906
lclavicle 9.5268e-015 9.25125e-015
lhumerus -47.278 49.6317 53.6542
lradius 9.16386
lwrist -35.1035
lhand -12.6233 47.0464
lfingers 7.12502
lthumb 13.4563 76.5917
rfemur -9.36992 2.20165 10.7461
rtibia 29.8
rfoot -18.6708 -23.2285
rtoes -10.0437
lfemur -10.944 -8.45407 -17.5407
ltibia 30.7972
lfoot -20.518 24.4081
ltoes -11.0187
10
root 38.3879 15.9753 0.0536499 -35.2196 -85.1517 39.5617
lowerback -2.90558 -2.44962 -7.27692
upperback -1.2013 -3.08622 0.241078
thorax 0.782366 -1.54496 4.20599
lowerneck -10.2153 0.922839 3.92802
upperneck 18.2208 0.504563 -0.849287
head 7.28713 0.344852 -0.893904
rclavicle 3.8452e-014 1.75552e-014
rhumerus -43.5559 -42.4963 -55.3021
rradius 9.38716
rwrist 34.1416
rhand -19.7435 36.482
rfingers 7.12502
rthumb 6.58744 6.60446
lclavicle 3.8452e-014 1.75552e-014
lhumerus -47.0641 49.8407 53.8663
lradius 9.18643
lwrist -35.2834
lhand -14.8223 44.7526
lfingers 7.12502
lthumb 11.3362 74.4262
rfemur -9.2868 2.11689 10.6448
rtibia 29.8241
rfoot -18.6132 -23.2396
rtoes -9.94672
lfemur -10.8829 -8.26253 -17.6247
ltibia 30.7753
lfoot -20.5575 24.1319
ltoes -11.0355
11
root 38.3819 15.9755 0.0568787 -35.5566 -85.1157 39.9713
lowerback -2.72879 -2.49385 -7.3779
upperback -1.45041 -3.1702 0.303787
thorax 0.444309 -1.56898 4.33826
lowerneck -10.3835 0.928912 4.15703
upperneck 19.1057 0.519301 -1.2919
head 7.6086 0.324814 -1.08053
rclavicle 9.22407e-015 5.24295e-015
rhumerus -43.6539 -42.2166 -55.1542
rradius 9.25726
rwrist 34.157
rhand -19.9949 36.4053
rfingers 7.12502
rthumb 6.34476 6.52032
lclavicle 9.22407e-015 5.24295e-015
lhumerus -47.5655 49.8181 53.516
lradius 8.99876
lwrist -35.1615
lhand -12.5958 46.7245
lfingers 7.12502
lthumb 13.4828 76.2681
rfemur -9.33314 1.99913 10.5575
rtibia 29.8153
rfoot -18.6563 -23.1381
rtoes -9.69809
lfemur -10.9419 -8.13864 -17.6781
ltibia 30.7768
lfoot -20.6041 23.9935
ltoes -11.2311
12
root 38.3788 15.9782 0.0566298 -34.6381 -85.1773 39.0658
lowerback -2.84962 -2.46661 -7.31868
upperback -1.50883 -3.12852 0.310358
thorax 0.443358 -1.54711 4.31008
lowerneck -10.6966 1.13729 4.27579
upperneck 20.692 0.698649 -1.23747
head 8.19924 0.417171 -1.07543
rclavicle -1.71405e-014 1.81888e-014
rhumerus -43.8152 -42.2619 -55.0336
rradius 9.21275
rwrist 34.1569
rhand -20.0631 36.5111
rfingers 7.12502
rthumb 6.27891 6.6242
lclavicle -1.71405e-014 1.81888e-014
lhumerus -47.4509 49.7007 53.5495
lradius 8.70282
lwrist -35.0754
lhand -12.2615 47.0553
lfingers 7.12502
lthumb 13.805 76.5772
rfemur -9.29716 1.94906 10.6741
rtibia 29.7656
rfoot -18.7255 -23.0506
rtoes -9.68062
lfemur -10.9524 -8.21743 -17.5714
ltibia 30.8077
lfoot -20.6504 24.0437
ltoes -11.1186
